<?xml version="1.0" encoding="utf-8"?>
<!-- Generator: Adobe Illustrator 21.0.0, SVG Export Plug-In . SVG Version: 6.00 Build 0)  -->
<svg version="1.1" xmlns="http://www.w3.org/2000/svg" xmlns:xlink="http://www.w3.org/1999/xlink" x="0px" y="0px"
	 viewBox="0 0 450 450" style="enable-background:new 0 0 450 450;" xml:space="preserve">
<style type="text/css">
	.st0{fill:#DB3328;}
	.st1{fill:#FFFFFF;}
	.st2{fill:none;stroke:#DB3328;stroke-width:8;stroke-linecap:round;stroke-linejoin:round;}
	.st3{fill:#FF1D25;}
</style>
<g id="Слой_1">
	<g>
		<circle class="st0" cx="-828" cy="-312" r="225"/>
	</g>
</g>
<g id="Слой_3">
	<path class="st1" d="M-762-260c-23.4,28-59.4,36.8-87,23c-25.6-12.8-29.4-23.5-34-30c-7-10-8.7-25.4-15-27c-7,1-11-3-11-11
		c0-7.3,8.4-16,12-18c8-4.5,18.2-4.3,23-1c9,6.2,10.7,21,25,21c6.7,0,19-3,27-9c6.5-4.9,13.5-15.6,15-24c2-17,4-42,10-61
		c8-2,16,0,28,8c-3,25-16,38,12,47C-725.7-323.6-738.6-288-762-260z"/>
	<path class="st1" d="M-912.2-294.6c-0.4-0.2-0.9,0.1-0.9,0.5c-0.3,4.9-1.7,28.3,0.1,38.1c2,11,15,36.2,28,37c17,1,23-13,21-19
		s-10.3-10.3-15-13c-7-4-6.1-6.5-9-11c-9.4-14.5-11.5-23.9-11.9-26.4c-0.1-0.4-0.3-0.7-0.7-0.9L-912.2-294.6z"/>
	<ellipse transform="matrix(0.5622 -0.827 0.827 0.5622 -189.6333 -830.2311)" class="st0" cx="-879" cy="-236" rx="13" ry="8"/>
	<path class="st0" d="M-884-277h69c0,0-1,4,4,6c-3,12-8,34-8,34S-861-233-884-277z"/>
	<path class="st0" d="M-785-390c0,0-5,10-6,21s3,52-2,65s-17,22-18,25s-2,2,0,4s3,1,5,0s18-14,20-26s3-54,1-63s7-24,7-24
		c-1-1-1.6-1.7-2.5-2C-784-391-785-390-785-390z"/>
	<g>
		<circle class="st0" cx="-310" cy="-312" r="225"/>
	</g>
	<path class="st1" d="M-339.5-367.5c-11.2,0-21.1,5.2-27.5,13.4c-6.4-8.1-16.3-13.4-27.5-13.4c-19.3,0-35,15.7-35,35s7.6,26.5,25,42
		c9,8,38,34,38,34s28-24,37-33c15.1-15.1,25-23.7,25-43S-320.2-367.5-339.5-367.5z"/>
	<path class="st1" d="M-225.5-368.5c-11.2,0-21.1,5.2-27.5,13.4c-6.4-8.1-16.3-13.4-27.5-13.4c-19.3,0-35,15.7-35,35s7.6,26.5,25,42
		c9,8,38,34,38,34s28-24,37-33c15.1-15.1,25-23.7,25-43S-206.2-368.5-225.5-368.5z"/>
	<g>
		<circle class="st0" cx="225" cy="-312" r="225"/>
	</g>
	<ellipse class="st0" cx="225.5" cy="-382" rx="12.5" ry="10"/>
	<path class="st1" d="M205.7-244.2c0-15.1,27.3-63.4,27.3-63.4s27.3,48.3,27.3,63.4s-12.2,27.3-27.3,27.3S205.7-229.1,205.7-244.2z"
		/>
	<path class="st1" d="M256.9-367.7c0-15.1,27.3-63.4,27.3-63.4s27.3,48.3,27.3,63.4c0,15.1-12.2,27.3-27.3,27.3
		S256.9-352.6,256.9-367.7z"/>
	<path class="st1" d="M140.5-339.7c0-15.1,27.3-63.4,27.3-63.4s27.3,48.3,27.3,63.4c0,15.1-12.2,27.3-27.3,27.3
		S140.5-324.6,140.5-339.7z"/>
	<g>
		<circle class="st0" cx="770" cy="-312" r="225"/>
	</g>
	<path class="st1" d="M840-227H700c-8.3,0-15-6.8-15-15v-140c0-8.3,6.8-15,15-15h140c8.3,0,15,6.8,15,15v140
		C855-233.7,848.3-227,840-227z"/>
	<rect x="700" y="-272" class="st0" width="30" height="30"/>
	<rect x="737" y="-272" class="st0" width="30" height="30"/>
	<rect x="773" y="-272" class="st0" width="30" height="30"/>
	<rect x="810" y="-272" class="st0" width="30" height="30"/>
	<rect x="700" y="-310" class="st0" width="30" height="30"/>
	<rect x="737" y="-310" class="st0" width="30" height="30"/>
	<rect x="773" y="-310" class="st0" width="30" height="30"/>
	<rect x="810" y="-310" class="st0" width="30" height="30"/>
	<rect x="700" y="-348" class="st0" width="30" height="30"/>
	<rect x="737" y="-348" class="st0" width="30" height="30"/>
	<rect x="773" y="-348" class="st0" width="30" height="30"/>
	<rect x="810" y="-348" class="st0" width="30" height="30"/>
	<path class="st1" d="M728-412h10c4.4,0,8,3.6,8,8v34c0,4.4-3.6,8-8,8h-10c-4.4,0-8-3.6-8-8v-34C720-408.4,723.6-412,728-412z"/>
	<path class="st1" d="M802-412h10c4.4,0,8,3.6,8,8v34c0,4.4-3.6,8-8,8h-10c-4.4,0-8-3.6-8-8v-34C794-408.4,797.6-412,802-412z"/>
	<path class="st0" d="M734-367h-2c-1.6,0-3-1.4-3-3v-34c0-1.6,1.4-3,3-3h2c1.6,0,3,1.4,3,3v34C737-368.4,735.6-367,734-367z"/>
	<path class="st0" d="M808-367h-2c-1.6,0-3-1.4-3-3v-34c0-1.6,1.4-3,3-3h2c1.6,0,3,1.4,3,3v34C811-368.4,809.6-367,808-367z"/>
	<g>
		<circle class="st0" cx="1313" cy="-312" r="225"/>
	</g>
	<path class="st1" d="M1268.1-265.4L1268.1-265.4c-6.9-6.9-6.9-18.2,0-25.1l92.3-92.3c6.9-6.9,18.2-6.9,25.1,0l0,0
		c6.9,6.9,6.9,18.2,0,25.1l-92.3,92.3C1286.3-258.5,1275-258.5,1268.1-265.4z"/>
	<path class="st1" d="M1300.9-320l-55-30c-1.9-1.9-1.9-4.9,0-6.8l17.4-17.4c1.9-1.9,4.2-1.4,6.8,0l69.5,15.5c1.9,1.9,1.9,4.9,0,6.8
		l-31.9,31.9C1305.8-318.1,1302.8-318.1,1300.9-320z"/>
	<path class="st1" d="M1324.4-300l30,55c1.9,1.9,4.9,1.9,6.8,0l17.4-17.4c1.9-1.9,1.4-4.2,0-6.8l-15.5-69.5c-1.9-1.9-4.9-1.9-6.8,0
		l-31.9,31.9C1322.5-304.9,1322.5-301.9,1324.4-300z"/>
	<path class="st1" d="M1255.1-255.3l-36.2-19.7c-1.2-1.2-1.2-3.2,0-4.4l11.4-11.4c1.2-1.2,2.7-0.9,4.4,0l45.7,10.2
		c1.2,1.2,1.2,3.2,0,4.4l-21,21C1258.3-254.1,1256.3-254.1,1255.1-255.3z"/>
	<path class="st1" d="M1257.1-253.6l19.7,36.2c1.2,1.2,3.2,1.2,4.4,0l11.4-11.4c1.2-1.2,0.9-2.7,0-4.4l-10.1-45.8
		c-1.2-1.2-3.2-1.2-4.4,0l-21,21C1255.8-256.8,1255.8-254.8,1257.1-253.6z"/>
	<g>
		<circle class="st0" cx="-828.5" cy="224.5" r="225"/>
	</g>
	<path class="st1" d="M-790.5,150c-15,0-28.3,7-36.9,18c-8.6-11-22-18-36.9-18c-26,0-47,21-47,47s10.2,35.6,33.6,56.4
		c12.1,10.7,51,45.6,51,45.6s37.6-32.2,49.7-44.3c20.3-20.3,33.6-31.8,33.6-57.7S-764.5,150-790.5,150z"/>
	<g>
		<polyline class="st2" points="-925.7,218.1 -856.7,218.1 -842.6,180.5 -827.4,218.1 -814.6,251.7 -799.2,218.1 -720.3,218.1 		"/>
	</g>
	<g>
		<circle class="st0" cx="-310" cy="225" r="225"/>
	</g>
	<ellipse class="st0" cx="-309.5" cy="155" rx="12.5" ry="10"/>
	<path class="st1" d="M-261.5,306h-97c-17.9,0-32.5-14.6-32.5-32.5v-97c0-17.9,14.6-32.5,32.5-32.5h97c17.9,0,32.5,14.6,32.5,32.5
		v97C-229,291.4-243.6,306-261.5,306z"/>
	<circle class="st0" cx="-310" cy="194" r="25"/>
	<path class="st1" d="M-307.1,189c1.2,2.5,0.2,5.5-2.3,6.7s-5.5,0.2-6.7-2.3s-4.5-20.6-4.5-20.6S-308.3,186.5-307.1,189z"/>
	<g>
		<circle class="st0" cx="225" cy="225" r="225"/>
	</g>
	<path class="st1" d="M262.3,148.9c-15.4,0-29.1,7.3-38,18.4c-8.9-11.3-22.6-18.4-38-18.4c-26.7,0-48.4,21.7-48.4,48.4
		s10.5,36.6,34.6,58c12.4,11.1,52.5,47,52.5,47s38.7-33.2,51.1-45.6c21-21,34.6-32.7,34.6-59.4S289,148.9,262.3,148.9z M267.3,250.3
		c-10.9,10.9-42.3,38.8-42.3,38.8s-32.6-30.3-43.5-40.1c-21.2-18.9-33.1-27.6-33.1-51.1s17.6-38.5,41.2-38.5
		c13.6,0,27.1,10.4,34.8,20.3c7.8-9.9,21.3-20.3,34.8-20.3c23.5,0,41.2,14.9,41.2,38.5S285.6,231.9,267.3,250.3z"/>
	<path class="st1" d="M151.7,296.6L151.7,296.6c-1.6-1.6-1.6-4.1,0-5.6l30.2-30.2c1.6-1.6,4.1-1.6,5.6,0l0,0c1.6,1.6,1.6,4.1,0,5.6
		l-30.2,30.2C155.8,298.1,153.3,298.1,151.7,296.6z"/>
	<path class="st1" d="M152.7,298L152.7,298c-2.2-0.3-3.7-2.5-3.2-4.7l2.6-14.7c0.3-2.2,2.5-3.7,4.7-3.2l0,0c2.2,0.3,3.7,2.5,3.2,4.7
		l-2.6,14.7C156.9,296.9,154.9,298.4,152.7,298z"/>
	<path class="st1" d="M150.8,295L150.8,295c-0.3-2.2,1-4.3,3.2-4.7l14.7-2.6c2.2-0.3,4.3,1,4.7,3.2l0,0c0.3,2.2-1,4.3-3.2,4.7
		l-14.7,2.6C153.3,298.7,151.2,297.2,150.8,295z"/>
	<path class="st1" d="M280.6,179.1L280.6,179.1c-1.6-1.6-1.6-4.1,0-5.6l30.2-30.2c1.6-1.6,4.1-1.6,5.6,0l0,0c1.6,1.6,1.6,4.1,0,5.6
		l-30.2,30.2C284.8,180.6,282.3,180.6,280.6,179.1z"/>
	<path class="st1" d="M300.1,162.1L300.1,162.1c-2.2-0.3-3.7-2.5-3.2-4.7l2.6-14.7c0.3-2.2,2.5-3.7,4.7-3.2l0,0
		c2.2,0.3,3.7,2.5,3.2,4.7l-2.6,14.7C304.4,161,302.3,162.5,300.1,162.1z"/>
	<path class="st1" d="M298.3,159.1L298.3,159.1c-0.3-2.2,1-4.3,3.2-4.7l14.7-2.6c2.2-0.3,4.3,1,4.7,3.2l0,0c0.3,2.2-1,4.3-3.2,4.7
		l-14.7,2.6C300.7,162.8,298.6,161.3,298.3,159.1z"/>
	<g>
		<circle class="st0" cx="770" cy="225" r="225"/>
	</g>
	<path class="st1" d="M776.5,231h-12c-7.7,0-12-6.3-12-14l-7-42c0-7.7,6.3-14,14-14h22c7.7,0,14,6.3,14,14l-7,42
		C788.5,224.7,784.2,231,776.5,231z"/>
	<ellipse class="st0" cx="770.5" cy="155" rx="12.5" ry="10"/>
	<circle class="st1" cx="770.5" cy="137" r="20"/>
	<path class="st1" d="M702.7,220.3L702.7,220.3c-2.3-2.3-2.3-6.2,0-8.5l48.1-48.1c2.3-2.3,6.2-2.3,8.5,0l0,0c2.3,2.3,2.3,6.2,0,8.5
		l-48.1,48.1C708.9,222.6,705,222.6,702.7,220.3z"/>
	<path class="st1" d="M837.3,220.3L837.3,220.3c2.3-2.3,2.3-6.2,0-8.5l-48.1-48.1c-2.3-2.3-6.2-2.3-8.5,0l0,0
		c-2.3,2.3-2.3,6.2,0,8.5l48.1,48.1C831.1,222.6,835,222.6,837.3,220.3z"/>
	<path class="st1" d="M760.5,330L760.5,330c-3.9,0-7-3.1-7-7v-66c0-3.9,3.1-7,7-7l0,0c3.8,0,7,3.1,7,7v66
		C767.5,326.9,764.4,330,760.5,330z"/>
	<path class="st1" d="M780.5,330L780.5,330c-3.9,0-7-3.1-7-7v-66c0-3.9,3.1-7,7-7l0,0c3.8,0,7,3.1,7,7v66
		C787.5,326.9,784.4,330,780.5,330z"/>
	<path class="st1" d="M795.2,261c7.3-7.9,11.8-19.2,11.8-31.7c0-23.9-16.6-43.3-37-43.3s-37,19.4-37,43.3c0,12.5,4.5,23.8,11.8,31.7
		H795.2z"/>
	<path class="st3" d="M775.5,207.9c-2.2,0-4.2,1-5.5,2.7c-1.3-1.6-3.3-2.7-5.5-2.7c-3.9,0-7,3.1-7,7s1.5,5.3,5,8.4
		c1.8,1.6,7.6,6.8,7.6,6.8s5.6-4.8,7.4-6.6c3-3,5-4.7,5-8.6C782.5,211,779.4,207.9,775.5,207.9z"/>
	<g>
		<circle class="st0" cx="1313" cy="225" r="225"/>
	</g>
	<ellipse class="st0" cx="1313.5" cy="155" rx="12.5" ry="10"/>
	<path class="st1" d="M1391,313h-154c-4.4,0-8-3.6-8-8V151c0-4.4,3.6-8,8-8h154c4.4,0,8,3.6,8,8v154C1399,309.4,1395.4,313,1391,313
		z"/>
	<rect x="1242" y="156" class="st0" width="144" height="144"/>
	<path class="st1" d="M1332,170h-36c-4.4,0-8-3.6-8-8v-36c0-4.4,3.6-8,8-8h36c4.4,0,8,3.6,8,8v36C1340,166.4,1336.4,170,1332,170z"
		/>
	<rect x="1310" y="128" class="st0" width="8" height="32"/>
	<rect x="1298" y="139" class="st0" width="32" height="8"/>
	<path class="st1" d="M1299,268h28c2.8,0,5,2.3,5,5v28c0,2.8-2.3,5-5,5h-28c-2.8,0-5-2.3-5-5v-28C1294,270.3,1296.3,268,1299,268z"
		/>
	<path class="st1" d="M1273,198h-16c-1.1,0-2-0.9-2-2v-16c0-1.1,0.9-2,2-2h16c1.1,0,2,0.9,2,2v16C1275,197.1,1274.1,198,1273,198z"
		/>
	<path class="st1" d="M1370,198h-16c-1.1,0-2-0.9-2-2v-16c0-1.1,0.9-2,2-2h16c1.1,0,2,0.9,2,2v16C1372,197.1,1371.1,198,1370,198z"
		/>
	<path class="st1" d="M1337.7,198h-16c-1.1,0-2-0.9-2-2v-16c0-1.1,0.9-2,2-2h16c1.1,0,2,0.9,2,2v16
		C1339.7,197.1,1338.8,198,1337.7,198z"/>
	<path class="st1" d="M1305.3,198h-16c-1.1,0-2-0.9-2-2v-16c0-1.1,0.9-2,2-2h16c1.1,0,2,0.9,2,2v16
		C1307.3,197.1,1306.4,198,1305.3,198z"/>
	<path class="st1" d="M1273,228h-16c-1.1,0-2-0.9-2-2v-16c0-1.1,0.9-2,2-2h16c1.1,0,2,0.9,2,2v16C1275,227.1,1274.1,228,1273,228z"
		/>
	<path class="st1" d="M1370,228h-16c-1.1,0-2-0.9-2-2v-16c0-1.1,0.9-2,2-2h16c1.1,0,2,0.9,2,2v16C1372,227.1,1371.1,228,1370,228z"
		/>
	<path class="st1" d="M1337.7,228h-16c-1.1,0-2-0.9-2-2v-16c0-1.1,0.9-2,2-2h16c1.1,0,2,0.9,2,2v16
		C1339.7,227.1,1338.8,228,1337.7,228z"/>
	<path class="st1" d="M1305.3,228h-16c-1.1,0-2-0.9-2-2v-16c0-1.1,0.9-2,2-2h16c1.1,0,2,0.9,2,2v16
		C1307.3,227.1,1306.4,228,1305.3,228z"/>
	<path class="st1" d="M1273,258h-16c-1.1,0-2-0.9-2-2v-16c0-1.1,0.9-2,2-2h16c1.1,0,2,0.9,2,2v16C1275,257.1,1274.1,258,1273,258z"
		/>
	<path class="st1" d="M1370,258h-16c-1.1,0-2-0.9-2-2v-16c0-1.1,0.9-2,2-2h16c1.1,0,2,0.9,2,2v16C1372,257.1,1371.1,258,1370,258z"
		/>
	<path class="st1" d="M1337.7,258h-16c-1.1,0-2-0.9-2-2v-16c0-1.1,0.9-2,2-2h16c1.1,0,2,0.9,2,2v16
		C1339.7,257.1,1338.8,258,1337.7,258z"/>
	<path class="st1" d="M1305.3,258h-16c-1.1,0-2-0.9-2-2v-16c0-1.1,0.9-2,2-2h16c1.1,0,2,0.9,2,2v16
		C1307.3,257.1,1306.4,258,1305.3,258z"/>
	<path class="st1" d="M1273,288h-16c-1.1,0-2-0.9-2-2v-16c0-1.1,0.9-2,2-2h16c1.1,0,2,0.9,2,2v16C1275,287.1,1274.1,288,1273,288z"
		/>
	<path class="st1" d="M1370,288h-16c-1.1,0-2-0.9-2-2v-16c0-1.1,0.9-2,2-2h16c1.1,0,2,0.9,2,2v16C1372,287.1,1371.1,288,1370,288z"
		/>
	<g>
		<circle class="st0" cx="1856" cy="-312" r="225"/>
	</g>
	<ellipse class="st0" cx="1856.5" cy="-372" rx="10.8" ry="8.6"/>
	<path class="st1" d="M1874.6-331.1h-37.1c-6.4,0-11.6-5.3-11.6-11.6v-37.1c0-6.4,5.3-11.6,11.6-11.6h37.1c6.4,0,11.6,5.3,11.6,11.6
		v37.1C1886.2-336.3,1881-331.1,1874.6-331.1z"/>
	<rect x="1839.7" y="-378.9" class="st0" width="32.7" height="32.7"/>
	<path class="st1" d="M1923.3-233.7h-133.6c-14.7,0-26.7-12.1-26.7-26.7V-338c0-14.7,12-26.7,26.7-26.7h133.6
		c14.6,0,26.7,12,26.7,26.7v77.6C1950-245.8,1937.9-233.7,1923.3-233.7z"/>
	<rect x="1790.6" y="-372" class="st0" width="5.2" height="143.9"/>
	<rect x="1918.1" y="-372" class="st0" width="5.2" height="143.9"/>
	<rect x="1845.7" y="-335.8" class="st0" width="21.5" height="73.2"/>
	<rect x="1819.4" y="-310" class="st0" width="73.2" height="21.5"/>
</g>
</svg>
