<?xml version="1.0" encoding="utf-8"?>
<!-- Generator: Adobe Illustrator 21.0.0, SVG Export Plug-In . SVG Version: 6.00 Build 0)  -->
<svg version="1.1" xmlns="http://www.w3.org/2000/svg" xmlns:xlink="http://www.w3.org/1999/xlink" x="0px" y="0px"
	 viewBox="0 0 115 180" style="enable-background:new 0 0 115 180;" xml:space="preserve">
<style type="text/css">
	.st0{stroke:#000000;stroke-miterlimit:10;}
	.st1{fill:none;stroke:#000000;stroke-miterlimit:10;}
	.st2{fill:#FF0000;}
	.st3{fill:#FFFFFF;}
</style>
<g id="Слой_1">
</g>
<g id="Слой_2">
	<path class="st0" d="M55.5,40.5v4.8c0,2.1-1.2,5.6-2.5,7.2h-0.2l-1.2-1.9c-0.7-1.4-1.1-2.9-1.1-4.5v-5.6H55.5z"/>
	<path class="st0" d="M97.3,127.5l-2-27l1-27.8C97.3,45.5,85,52.5,85,40.5H73.5v4.7c0,1.8,0.5,3.6,1.5,5.1l1.9,3.1
		c9.1,2.6,15.8,11,15.8,21v56.2c1,15.9-11,19.9-21.9,21.9H44.6c-11.9-2-21.9-6-21.9-21.9V74.4c0-8.1,4.4-15.1,10.9-18.9l2.9-5
		c1-1.5,1-3.5,1-5.3v-4.7h-7c0,13-15.3,6-12.3,32.3l1,27.8l-1,27.8c-2,20.3,15.3,33.3,34.3,33.3H62C81,161.5,100.3,147.5,97.3,127.5
		z M52.5,158c-0.8,0-1.5-0.7-1.5-1.5c0-0.8,0.7-1.5,1.5-1.5s1.5,0.7,1.5,1.5C54,157.3,53.3,158,52.5,158z M63.5,158
		c-0.8,0-1.5-0.7-1.5-1.5c0-0.8,0.7-1.5,1.5-1.5s1.5,0.7,1.5,1.5C65,157.3,64.3,158,63.5,158z"/>
	<path class="st0" d="M48.5,40.5l0,5.6c0,1.5-0.4,3.1-1.1,4.5l-0.9,1.9h-2L43,50.3c-1-1.5-1.5-3.3-1.5-5.1v-4.7H48.5z"/>
	<line class="st1" x1="41.5" y1="40.5" x2="37.5" y2="40.5"/>
	<path class="st0" d="M69.5,40.5v4.7c0,1.8-0.5,3.6-1.5,5.1l-1.4,2.2h-4l-1.1-1.4c-1.3-1.7-1.9-3.7-1.9-5.8v-4.8H69.5z"/>
	<line class="st1" x1="73.5" y1="40.5" x2="69.5" y2="40.5"/>
	<path class="st0" d="M77.5,22.5v18h-2v-17c0-1.1-0.9-2-2-2h-4c-1.1,0-2,0.9-2,2v17h-2v-18c0-1.7,1.3-3,3-3h6
		C76.2,19.5,77.5,20.8,77.5,22.5z"/>
	<path class="st1" d="M75.5,23.5v17h-8v-17c0-1.1,0.9-2,2-2h4C74.6,21.5,75.5,22.4,75.5,23.5z"/>
	<path class="st0" d="M45.5,22.5v18h-2v-17c0-1.1-0.9-2-2-2h-4c-1.1,0-2,0.9-2,2v17h-2v-18c0-1.7,1.3-3,3-3h6
		C44.2,19.5,45.5,20.8,45.5,22.5z"/>
	<path class="st1" d="M43.5,23.5v17h-8v-17c0-1.1,0.9-2,2-2h4C42.6,21.5,43.5,22.4,43.5,23.5z"/>
	<path class="st1" d="M43.5,23.5v17h-8v-17c0-1.1,0.9-2,2-2h4C42.6,21.5,43.5,22.4,43.5,23.5z"/>
	<path class="st1" d="M75.5,23.5v17h-8v-17c0-1.1,0.9-2,2-2h4C74.6,21.5,75.5,22.4,75.5,23.5z"/>
	<line class="st1" x1="37.5" y1="23.5" x2="41.5" y2="23.5"/>
	<line class="st1" x1="37.5" y1="25.5" x2="41.5" y2="25.5"/>
	<line class="st1" x1="37.5" y1="27.5" x2="41.5" y2="27.5"/>
	<line class="st1" x1="37.5" y1="29.5" x2="41.5" y2="29.5"/>
	<line class="st1" x1="37.5" y1="31.5" x2="41.5" y2="31.5"/>
	<line class="st1" x1="37.5" y1="33.5" x2="41.5" y2="33.5"/>
	<line class="st1" x1="37.5" y1="35.5" x2="41.5" y2="35.5"/>
	<line class="st1" x1="37.5" y1="37.5" x2="41.5" y2="37.5"/>
	<line class="st1" x1="69.5" y1="23.5" x2="73.5" y2="23.5"/>
	<line class="st1" x1="69.5" y1="25.5" x2="73.5" y2="25.5"/>
	<line class="st1" x1="69.5" y1="27.5" x2="73.5" y2="27.5"/>
	<line class="st1" x1="69.5" y1="29.5" x2="73.5" y2="29.5"/>
	<line class="st1" x1="69.5" y1="31.5" x2="73.5" y2="31.5"/>
	<line class="st1" x1="69.5" y1="33.5" x2="73.5" y2="33.5"/>
	<line class="st1" x1="69.5" y1="35.5" x2="73.5" y2="35.5"/>
	<line class="st1" x1="69.5" y1="37.5" x2="73.5" y2="37.5"/>
	<path class="st2" d="M70.8,152.5H44.6c-11.9-2-21.9-6-21.9-21.9V74.4C29,65,85,64,92.7,74.4v56.2C93.7,146.5,81.7,150.5,70.8,152.5
		z"/>
	<circle class="st3" cx="52.5" cy="156.5" r="1.5"/>
	<circle class="st3" cx="63.5" cy="156.5" r="1.5"/>
	<path class="st1" d="M70.8,152.5H44.6c-11.9-2-21.9-6-21.9-21.9V74.4c0-8.1,4.4-15.1,10.9-18.9l2.9-5c1-1.5,1-3.5,1-5.3v-4.7h4v4.7
		c0,1.8,0.5,3.6,1.5,5.1l1.5,2.2h2l0.9-1.9c0.7-1.4,1.1-2.9,1.1-4.5l0-5.6l0-26c0-0.5,0.5-2,1-2s1,1.5,1,2v31.6
		c0,1.5,0.4,3.1,1.1,4.5l1.2,1.9H53c1.3-1.7,2.5-5.1,2.5-7.2V23.5c0-1.1,0.9-2,2-2s2,0.9,2,2v21.8c0,2.1,0.7,4.1,1.9,5.8l1.1,1.4h4
		l1.4-2.2c1-1.5,1.5-3.3,1.5-5.1v-4.7h4v4.7c0,1.8,0.5,3.6,1.5,5.1l1.9,3.1c9.1,2.6,15.8,11,15.8,21v56.2
		C93.7,146.5,81.7,150.5,70.8,152.5z"/>
</g>
</svg>
