<?xml version="1.0" encoding="utf-8"?>
<!-- Generator: Adobe Illustrator 21.0.0, SVG Export Plug-In . SVG Version: 6.00 Build 0)  -->
<svg version="1.1" id="Слой_1" xmlns="http://www.w3.org/2000/svg" xmlns:xlink="http://www.w3.org/1999/xlink" x="0px" y="0px"
	 viewBox="0 0 450 450" style="enable-background:new 0 0 450 450;" xml:space="preserve">
<style type="text/css">
	.st0{fill:#DB3328;}
	.st1{fill:#FFFFFF;}
</style>
<g>
	<circle class="st0" cx="225" cy="225" r="225"/>
</g>
<path class="st1" d="M295,310H155c-8.3,0-15-6.8-15-15V155c0-8.3,6.8-15,15-15h140c8.3,0,15,6.8,15,15v140
	C310,303.3,303.3,310,295,310z"/>
<rect x="155" y="265" class="st0" width="30" height="30"/>
<rect x="192" y="265" class="st0" width="30" height="30"/>
<rect x="228" y="265" class="st0" width="30" height="30"/>
<rect x="265" y="265" class="st0" width="30" height="30"/>
<rect x="155" y="227" class="st0" width="30" height="30"/>
<rect x="192" y="227" class="st0" width="30" height="30"/>
<rect x="228" y="227" class="st0" width="30" height="30"/>
<rect x="265" y="227" class="st0" width="30" height="30"/>
<rect x="155" y="189" class="st0" width="30" height="30"/>
<rect x="192" y="189" class="st0" width="30" height="30"/>
<rect x="228" y="189" class="st0" width="30" height="30"/>
<rect x="265" y="189" class="st0" width="30" height="30"/>
<path class="st1" d="M183,125h10c4.4,0,8,3.6,8,8v34c0,4.4-3.6,8-8,8h-10c-4.4,0-8-3.6-8-8v-34C175,128.6,178.6,125,183,125z"/>
<path class="st1" d="M257,125h10c4.4,0,8,3.6,8,8v34c0,4.4-3.6,8-8,8h-10c-4.4,0-8-3.6-8-8v-34C249,128.6,252.6,125,257,125z"/>
<path class="st0" d="M189,170h-2c-1.6,0-3-1.4-3-3v-34c0-1.6,1.4-3,3-3h2c1.6,0,3,1.4,3,3v34C192,168.6,190.6,170,189,170z"/>
<path class="st0" d="M263,170h-2c-1.6,0-3-1.4-3-3v-34c0-1.6,1.4-3,3-3h2c1.6,0,3,1.4,3,3v34C266,168.6,264.6,170,263,170z"/>
</svg>
