<?xml version="1.0" encoding="utf-8"?>
<!-- Generator: Adobe Illustrator 21.0.0, SVG Export Plug-In . SVG Version: 6.00 Build 0)  -->
<svg version="1.1" id="Слой_1" xmlns="http://www.w3.org/2000/svg" xmlns:xlink="http://www.w3.org/1999/xlink" x="0px" y="0px"
	 viewBox="0 0 450 450" style="enable-background:new 0 0 450 450;" xml:space="preserve">
<style type="text/css">
	.st0{fill:#454647;}
	.st1{fill:#FFFFFF;}
</style>
<g>
	<path class="st0" d="M319.5,392.5h-166c-16.6,0-30-13.4-30-30v-220h226v220C349.5,379.1,336.1,392.5,319.5,392.5z"/>
</g>
<path class="st1" d="M238,356.5L238,356.5c-7.2,0-13-5.9-13-13v-152c0-7.1,5.8-13,13-13h0c7.1,0,13,5.8,13,13v152
	C251,350.6,245.2,356.5,238,356.5z"/>
<path class="st1" d="M184,356.5L184,356.5c-7.2,0-13-5.9-13-13v-152c0-7.1,5.8-13,13-13h0c7.1,0,13,5.8,13,13v152
	C197,350.6,191.2,356.5,184,356.5z"/>
<path class="st1" d="M292,356.5L292,356.5c-7.1,0-13-5.9-13-13v-152c0-7.1,5.9-13,13-13l0,0c7.1,0,13,5.8,13,13v152
	C305,350.6,299.1,356.5,292,356.5z"/>
<path class="st0" d="M215.3,64h41.5c7.8,0,14.3,6.4,14.3,14.3v41.5c0,7.8-6.4,14.3-14.3,14.3h-41.5c-7.8,0-14.3-6.4-14.3-14.3V78.3
	C201,70.4,207.4,64,215.3,64z"/>
<rect x="217" y="82" class="st1" width="38" height="22"/>
<path class="st0" d="M362,135H110v-9c0-18.8,15.2-34,34-34h184c18.8,0,34,15.2,34,34V135z"/>
</svg>
