<?xml version="1.0" encoding="utf-8"?>
<!-- Generator: Adobe Illustrator 21.0.0, SVG Export Plug-In . SVG Version: 6.00 Build 0)  -->
<svg version="1.1" id="Слой_1" xmlns="http://www.w3.org/2000/svg" xmlns:xlink="http://www.w3.org/1999/xlink" x="0px" y="0px"
	 viewBox="0 0 450 450" style="enable-background:new 0 0 450 450;" xml:space="preserve">
<style type="text/css">
	.st0{fill:#EDED18;}
	.st1{fill:#DB3328;}
</style>
<g>
	<path class="st0" d="M212.3,95.7c6.1-10.5,21.2-10.5,27.3,0l65.9,114.2l65.9,114.2c6.1,10.5-1.5,23.6-13.6,23.6H225.9H94
		c-12.1,0-19.7-13.1-13.6-23.6l65.9-114.2L212.3,95.7z"/>
</g>
<path class="st1" d="M242.1,179.2c0,6.8-9.6,69.5-13.8,96.9c-0.3,2.2-3.5,2.2-3.9,0c-4.3-27.3-13.8-90.1-13.8-96.9
	c0-8.7,7.1-15.8,15.8-15.8C235,163.4,242.1,170.5,242.1,179.2z"/>
<circle class="st1" cx="226.3" cy="302.1" r="11.8"/>
</svg>
