<?xml version="1.0" encoding="utf-8"?>
<!-- Generator: Adobe Illustrator 21.0.0, SVG Export Plug-In . SVG Version: 6.00 Build 0)  -->
<svg version="1.1" id="Слой_1" xmlns="http://www.w3.org/2000/svg" xmlns:xlink="http://www.w3.org/1999/xlink" x="0px" y="0px"
	 viewBox="0 0 450 450" style="enable-background:new 0 0 450 450;" xml:space="preserve">
<style type="text/css">
	.st0{fill:#DB3328;}
	.st1{fill:#FFFFFF;}
</style>
<g>
	<circle class="st0" cx="225" cy="225" r="225"/>
</g>
<path class="st1" d="M195.5,169.5c-11.2,0-21.1,5.2-27.5,13.4c-6.4-8.1-16.3-13.4-27.5-13.4c-19.3,0-35,15.7-35,35s7.6,26.5,25,42
	c9,8,38,34,38,34s28-24,37-33c15.1-15.1,25-23.7,25-43S214.8,169.5,195.5,169.5z"/>
<path class="st1" d="M309.5,168.5c-11.2,0-21.1,5.2-27.5,13.4c-6.4-8.1-16.3-13.4-27.5-13.4c-19.3,0-35,15.7-35,35s7.6,26.5,25,42
	c9,8,38,34,38,34s28-24,37-33c15.1-15.1,25-23.7,25-43S328.8,168.5,309.5,168.5z"/>
</svg>
