<?xml version="1.0" encoding="utf-8"?>
<!-- Generator: Adobe Illustrator 21.0.0, SVG Export Plug-In . SVG Version: 6.00 Build 0)  -->
<svg version="1.1" id="Слой_1" xmlns="http://www.w3.org/2000/svg" xmlns:xlink="http://www.w3.org/1999/xlink" x="0px" y="0px"
	 viewBox="0 0 450 450" style="enable-background:new 0 0 450 450;" xml:space="preserve">
<style type="text/css">
	.st0{fill:#DB3328;}
	.st1{fill:#FFFFFF;}
	.st2{fill:none;stroke:#DB3328;stroke-width:7;stroke-linecap:round;stroke-linejoin:round;}
</style>
<g>
	<circle class="st0" cx="225" cy="225" r="225"/>
</g>
<path class="st1" d="M271.2,131.8c-18.7,0-35.4,8.8-46.2,22.5c-10.8-13.7-27.5-22.5-46.2-22.5c-32.5,0-58.8,26.3-58.8,58.8
	s12.7,44.5,42,70.6c15.1,13.4,63.8,57.1,63.8,57.1s47-40.3,62.2-55.4c25.4-25.4,42-39.8,42-72.2S303.7,131.8,271.2,131.8z"/>
<g>
	<polyline class="st2" points="102,217 188.3,217 206,170 225,217 241,259 260.3,217 359,217 	"/>
</g>
</svg>
