<?xml version="1.0" encoding="utf-8"?>
<!-- Generator: Adobe Illustrator 21.0.0, SVG Export Plug-In . SVG Version: 6.00 Build 0)  -->
<svg version="1.1" id="Слой_1" xmlns="http://www.w3.org/2000/svg" xmlns:xlink="http://www.w3.org/1999/xlink" x="0px" y="0px"
	 viewBox="0 0 100 100" style="enable-background:new 0 0 100 100;" xml:space="preserve">
<style type="text/css">
	.st0{fill:#455B80;}
	.st1{fill-rule:evenodd;clip-rule:evenodd;fill:#FFFFFF;}
</style>
<path class="st0" d="M50,100L50,100c27.6,0,50-22.4,50-50v0c0-27.6-22.4-50-50-50h0C22.4,0,0,22.4,0,50v0C0,77.6,22.4,100,50,100z"
	/>
<path id="vk_x5F_alt_3_" class="st1" d="M49.2,71.2h4.5c0,0,1.4-0.1,2-0.9c0.6-0.7,0.6-2,0.6-2s-0.1-6,2.7-6.9
	c2.7-0.9,6.3,5.8,10,8.4c2.8,1.9,5,1.5,5,1.5l10-0.1c0,0,5.2-0.3,2.7-4.4c-0.2-0.3-1.4-3-7.4-8.6c-6.3-5.8-5.4-4.9,2.1-14.9
	c4.6-6.1,6.4-9.9,5.9-11.5c-0.5-1.5-3.9-1.1-3.9-1.1l-11.2,0.1c0,0-0.8-0.1-1.5,0.3c-0.6,0.4-1,1.2-1,1.2s-1.8,4.7-4.2,8.8
	c-5,8.5-7,9-7.8,8.4c-1.9-1.2-1.4-4.9-1.4-7.6c0-8.2,1.2-11.7-2.4-12.6c-1.2-0.3-2.1-0.5-5.2-0.5c-4,0-7.4,0-9.3,1
	c-1.3,0.6-2.3,2-1.7,2.1c0.7,0.1,2.4,0.5,3.3,1.7C42,35,42,38.5,42,38.5s0.7,9.7-1.5,10.9c-1.5,0.8-3.6-0.9-8.1-8.6
	c-2.3-4-4-8.3-4-8.3s-0.3-0.8-0.9-1.3c-0.7-0.5-1.7-0.7-1.7-0.7L15,30.6c0,0-1.6,0-2.2,0.7c-0.5,0.6,0,1.9,0,1.9s8.4,19.6,17.8,29.4
	C39.3,71.7,49.2,71.2,49.2,71.2L49.2,71.2L49.2,71.2z"/>
</svg>
