<?xml version="1.0" encoding="utf-8"?>
<!-- Generator: Adobe Illustrator 21.0.0, SVG Export Plug-In . SVG Version: 6.00 Build 0)  -->
<svg version="1.1" id="Слой_1" xmlns="http://www.w3.org/2000/svg" xmlns:xlink="http://www.w3.org/1999/xlink" x="0px" y="0px"
	 viewBox="0 0 100 100" style="enable-background:new 0 0 100 100;" xml:space="preserve">
<style type="text/css">
	.st0{fill:#414F90;}
	.st1{fill:#FFFFFF;}
</style>
<path class="st0" d="M50,100L50,100c27.6,0,50-22.4,50-50v0c0-27.6-22.4-50-50-50h0C22.4,0,0,22.4,0,50v0C0,77.6,22.4,100,50,100z"
	/>
<path id="facebook_3_" class="st1" d="M55.6,85.9V53.1h11l1.6-12.8H55.6v-8.1c0-3.7,1-6.2,6.3-6.2l6.8,0V14.6
	c-1.2-0.2-5.2-0.5-9.8-0.5C49,14.1,42.4,20,42.4,31v9.4h-11v12.8h11v32.8H55.6z"/>
</svg>
