<?xml version="1.0" encoding="utf-8"?>
<!-- Generator: Adobe Illustrator 21.0.0, SVG Export Plug-In . SVG Version: 6.00 Build 0)  -->
<svg version="1.0" id="Слой_2" xmlns="http://www.w3.org/2000/svg" xmlns:xlink="http://www.w3.org/1999/xlink" x="0px" y="0px"
	 viewBox="0 0 450 450" enable-background="new 0 0 450 450" xml:space="preserve">
<path fill="#DB3328" d="M299.4,76C273,75.7,249,85.6,231,102.1c-18.5-17.3-43.6-27.5-71.1-26.5c-52.5,1.9-96.4,45.1-95.4,97.5
	C65,200,72,225,118.5,281.5C140,307,185,344,230.5,364.4C276,342,323,304,343,282c48-61,54-77,54-108.4
	C397,120.2,352.7,76.7,299.4,76z"/>
<path fill="#FFFFFF" d="M340.5,208.5c-16.9,0-67.5,0-67.5,0l-6.7,19.8l-7.2-67.3l-11.2,47.5h-12.4l-5.3,7.2l-4.3-29.9l-10.6,22.7
	h-93.8c-4.5,0.5-6.5,4.1-6.5,5.5c0,1.4,2,5,6.5,5.5h97.2l5.4-9.3l3.7,26.1l10.7-16.8h13.6l4.8-12.5l6.8,62.7l13.3-50.2
	c0,0,47.6,0,63.5,0c5.5-0.5,6.5-3.4,6.5-5.5S345,209,340.5,208.5z"/>
</svg>
