<?xml version="1.0" encoding="utf-8"?>
<!-- Generator: Adobe Illustrator 21.0.0, SVG Export Plug-In . SVG Version: 6.00 Build 0)  -->
<svg version="1.1" id="Слой_1" xmlns="http://www.w3.org/2000/svg" xmlns:xlink="http://www.w3.org/1999/xlink" x="0px" y="0px"
	 viewBox="0 0 450 450" style="enable-background:new 0 0 450 450;" xml:space="preserve">
<style type="text/css">
	.st0{fill:#DB3328;}
	.st1{fill:#FFFFFF;}
</style>
<g>
	<circle class="st0" cx="225" cy="225" r="225"/>
</g>
<ellipse class="st0" cx="225.5" cy="155" rx="12.5" ry="10"/>
<path class="st1" d="M273.5,306h-97c-17.9,0-32.5-14.6-32.5-32.5v-97c0-17.9,14.6-32.5,32.5-32.5h97c17.9,0,32.5,14.6,32.5,32.5v97
	C306,291.4,291.4,306,273.5,306z"/>
<circle class="st0" cx="225" cy="194" r="25"/>
<path class="st1" d="M227.9,189c1.2,2.5,0.2,5.5-2.3,6.7s-5.5,0.2-6.7-2.3s-4.5-20.6-4.5-20.6S226.7,186.5,227.9,189z"/>
</svg>
