<?xml version="1.0" encoding="utf-8"?>
<!-- Generator: Adobe Illustrator 21.0.0, SVG Export Plug-In . SVG Version: 6.00 Build 0)  -->
<svg version="1.1" id="Слой_1" xmlns="http://www.w3.org/2000/svg" xmlns:xlink="http://www.w3.org/1999/xlink" x="0px" y="0px"
	 viewBox="0 0 450 450" style="enable-background:new 0 0 450 450;" xml:space="preserve">
<style type="text/css">
	.st0{fill:#DB3328;}
	.st1{fill:#FFFFFF;}
	.st2{fill:#FF1D25;}
</style>
<g>
	<circle class="st0" cx="225" cy="225" r="225"/>
</g>
<path class="st1" d="M231.5,231h-12c-7.7,0-12-6.3-12-14l-7-42c0-7.7,6.3-14,14-14h22c7.7,0,14,6.3,14,14l-7,42
	C243.5,224.7,239.2,231,231.5,231z"/>
<ellipse class="st0" cx="225.5" cy="155" rx="12.5" ry="10"/>
<circle class="st1" cx="225.5" cy="137" r="20"/>
<path class="st1" d="M157.7,220.3L157.7,220.3c-2.3-2.3-2.3-6.2,0-8.5l48.1-48.1c2.3-2.3,6.2-2.3,8.5,0l0,0c2.3,2.3,2.3,6.2,0,8.5
	l-48.1,48.1C163.9,222.6,160,222.6,157.7,220.3z"/>
<path class="st1" d="M292.3,220.3L292.3,220.3c2.3-2.3,2.3-6.2,0-8.5l-48.1-48.1c-2.3-2.3-6.2-2.3-8.5,0l0,0c-2.3,2.3-2.3,6.2,0,8.5
	l48.1,48.1C286.1,222.6,290,222.6,292.3,220.3z"/>
<path class="st1" d="M215.5,330L215.5,330c-3.9,0-7-3.1-7-7v-66c0-3.9,3.1-7,7-7h0c3.8,0,7,3.1,7,7v66
	C222.5,326.9,219.4,330,215.5,330z"/>
<path class="st1" d="M235.5,330L235.5,330c-3.9,0-7-3.1-7-7v-66c0-3.9,3.1-7,7-7h0c3.8,0,7,3.1,7,7v66
	C242.5,326.9,239.4,330,235.5,330z"/>
<path class="st1" d="M250.2,261c7.3-7.9,11.8-19.2,11.8-31.7c0-23.9-16.6-43.3-37-43.3s-37,19.4-37,43.3c0,12.5,4.5,23.8,11.8,31.7
	H250.2z"/>
<path class="st2" d="M230.5,207.9c-2.2,0-4.2,1-5.5,2.7c-1.3-1.6-3.3-2.7-5.5-2.7c-3.9,0-7,3.1-7,7c0,3.9,1.5,5.3,5,8.4
	c1.8,1.6,7.6,6.8,7.6,6.8s5.6-4.8,7.4-6.6c3-3,5-4.7,5-8.6C237.5,211,234.4,207.9,230.5,207.9z"/>
</svg>
