<?xml version="1.0" encoding="utf-8"?>
<!-- Generator: Adobe Illustrator 21.0.0, SVG Export Plug-In . SVG Version: 6.00 Build 0)  -->
<svg version="1.1" id="Слой_1" xmlns="http://www.w3.org/2000/svg" xmlns:xlink="http://www.w3.org/1999/xlink" x="0px" y="0px"
	 viewBox="0 0 450 450" style="enable-background:new 0 0 450 450;" xml:space="preserve">
<style type="text/css">
	.st0{fill:#DB3328;}
	.st1{fill:#FFFFFF;}
</style>
<g>
	<circle class="st0" cx="225" cy="225" r="225"/>
</g>
<ellipse class="st0" cx="225.5" cy="155" rx="12.5" ry="10"/>
<path class="st1" d="M246.5,202.5h-43c-7.4,0-13.5-6.1-13.5-13.5v-43c0-7.4,6.1-13.5,13.5-13.5h43c7.4,0,13.5,6.1,13.5,13.5v43
	C260,196.4,253.9,202.5,246.5,202.5z"/>
<rect x="206" y="147" class="st0" width="38" height="38"/>
<path class="st1" d="M303,315.5H148c-17.1,0-31-14-31-31v-90c0-17.1,13.9-31,31-31h155c17,0,31,13.9,31,31v90
	C334,301.5,320,315.5,303,315.5z"/>
<rect x="149" y="155" class="st0" width="6" height="167"/>
<rect x="297" y="155" class="st0" width="6" height="167"/>
<rect x="213" y="197" class="st0" width="25" height="85"/>
<rect x="212.5" y="197" transform="matrix(-1.836970e-16 1 -1 -1.836970e-16 464.5 14.5)" class="st0" width="25" height="85"/>
</svg>
