<?xml version="1.0" encoding="utf-8"?>
<!-- Generator: Adobe Illustrator 21.0.0, SVG Export Plug-In . SVG Version: 6.00 Build 0)  -->
<svg version="1.1" xmlns="http://www.w3.org/2000/svg" xmlns:xlink="http://www.w3.org/1999/xlink" x="0px" y="0px"
	 viewBox="0 0 450 450" style="enable-background:new 0 0 450 450;" xml:space="preserve">
<style type="text/css">
	.st0{fill:#DB3328;}
	.st1{fill:#FFFFFF;}
</style>
<g id="Слой_1">
	<g>
		<circle class="st0" cx="225" cy="225" r="225"/>
	</g>
</g>
<g id="Слой_3">
	<path class="st1" d="M291,277c-23.4,28-59.4,36.8-87,23c-25.6-12.8-29.4-23.5-34-30c-7-10-8.7-25.4-15-27c-7,1-11-3-11-11
		c0-7.3,8.4-16,12-18c8-4.5,18.2-4.3,23-1c9,6.2,10.7,21,25,21c6.7,0,19-3,27-9c6.5-4.9,13.5-15.6,15-24c2-17,4-42,10-61
		c8-2,16,0,28,8c-3,25-16,38,12,47C327.3,213.4,314.4,249,291,277z"/>
	<path class="st1" d="M140.8,242.4c-0.4-0.2-0.9,0.1-0.9,0.5c-0.3,4.9-1.7,28.3,0.1,38.1c2,11,15,36.2,28,37c17,1,23-13,21-19
		s-10.3-10.3-15-13c-7-4-6.1-6.5-9-11c-9.4-14.5-11.5-23.9-11.9-26.4c-0.1-0.4-0.3-0.7-0.7-0.9L140.8,242.4z"/>
	<ellipse transform="matrix(0.5622 -0.827 0.827 0.5622 -172.7493 275.664)" class="st0" cx="174" cy="301" rx="13" ry="8"/>
	<path class="st0" d="M169,260h69c0,0-1,4,4,6c-3,12-8,34-8,34S192,304,169,260z"/>
	<path class="st0" d="M268,147c0,0-5,10-6,21s3,52-2,65s-17,22-18,25s-2,2,0,4s3,1,5,0s18-14,20-26s3-54,1-63s7-24,7-24
		c-1-1-1.6-1.7-2.5-2C269,146,268,147,268,147z"/>
</g>
</svg>
