<?xml version="1.0" encoding="utf-8"?>
<!-- Generator: Adobe Illustrator 21.0.0, SVG Export Plug-In . SVG Version: 6.00 Build 0)  -->
<svg version="1.1" id="Слой_1" xmlns="http://www.w3.org/2000/svg" xmlns:xlink="http://www.w3.org/1999/xlink" x="0px" y="0px"
	 viewBox="0 0 100 100" style="enable-background:new 0 0 100 100;" xml:space="preserve">
<style type="text/css">
	.st0{fill:#FFFFFF;}
</style>
<path class="st0" d="M89.2,66.3C83.3,61.6,76,59,67.1,58.5c-4-0.2-7.5-2.2-8.1-6.2l0,0c-0.4-2.8,1-4.4,3.2-6.2C66,44,71,37,70,25
	C68.7,9.9,62.7,4,50,4s-18.8,6.9-20,21c-1,12,4,19,7.8,21.2c2.2,1.8,3.7,3.4,3.2,6.2v0.3c-0.6,3.9-4.1,5.8-8,6.2
	c-11,1.2-16.9,3.3-22.1,7.3C5.6,70.2,3.3,76,2.4,83C1.9,87.2,0,94,1.7,98h96.6c1.7-6-0.2-10.9-0.8-15.3
	C96.6,75.8,94.3,70.3,89.2,66.3z"/>
</svg>
