<?xml version="1.0" encoding="utf-8"?>
<!-- Generator: Adobe Illustrator 21.0.0, SVG Export Plug-In . SVG Version: 6.00 Build 0)  -->
<svg version="1.1" id="Слой_1" xmlns="http://www.w3.org/2000/svg" xmlns:xlink="http://www.w3.org/1999/xlink" x="0px" y="0px"
	 viewBox="0 0 450 450" style="enable-background:new 0 0 450 450;" xml:space="preserve">
<style type="text/css">
	.st0{fill:#DB3328;}
	.st1{fill:#FFFFFF;}
</style>
<g>
	<circle class="st0" cx="225" cy="225" r="225"/>
</g>
<ellipse class="st0" cx="225.5" cy="155" rx="12.5" ry="10"/>
<path class="st1" d="M303,313H149c-4.4,0-8-3.6-8-8V151c0-4.4,3.6-8,8-8h154c4.4,0,8,3.6,8,8v154C311,309.4,307.4,313,303,313z"/>
<rect x="154" y="156" class="st0" width="144" height="144"/>
<path class="st1" d="M244,170h-36c-4.4,0-8-3.6-8-8v-36c0-4.4,3.6-8,8-8h36c4.4,0,8,3.6,8,8v36C252,166.4,248.4,170,244,170z"/>
<rect x="222" y="128" class="st0" width="8" height="32"/>
<rect x="222" y="127" transform="matrix(3.819802e-07 1 -1 3.819802e-07 368.9999 -83.0001)" class="st0" width="8" height="32"/>
<path class="st1" d="M211,268h28c2.8,0,5,2.3,5,5v28c0,2.8-2.3,5-5,5h-28c-2.8,0-5-2.3-5-5v-28C206,270.3,208.3,268,211,268z"/>
<path class="st1" d="M185,198h-16c-1.1,0-2-0.9-2-2v-16c0-1.1,0.9-2,2-2h16c1.1,0,2,0.9,2,2v16C187,197.1,186.1,198,185,198z"/>
<path class="st1" d="M282,198h-16c-1.1,0-2-0.9-2-2v-16c0-1.1,0.9-2,2-2h16c1.1,0,2,0.9,2,2v16C284,197.1,283.1,198,282,198z"/>
<path class="st1" d="M249.7,198h-16c-1.1,0-2-0.9-2-2v-16c0-1.1,0.9-2,2-2h16c1.1,0,2,0.9,2,2v16C251.7,197.1,250.8,198,249.7,198z"
	/>
<path class="st1" d="M217.3,198h-16c-1.1,0-2-0.9-2-2v-16c0-1.1,0.9-2,2-2h16c1.1,0,2,0.9,2,2v16C219.3,197.1,218.4,198,217.3,198z"
	/>
<path class="st1" d="M185,228h-16c-1.1,0-2-0.9-2-2v-16c0-1.1,0.9-2,2-2h16c1.1,0,2,0.9,2,2v16C187,227.1,186.1,228,185,228z"/>
<path class="st1" d="M282,228h-16c-1.1,0-2-0.9-2-2v-16c0-1.1,0.9-2,2-2h16c1.1,0,2,0.9,2,2v16C284,227.1,283.1,228,282,228z"/>
<path class="st1" d="M249.7,228h-16c-1.1,0-2-0.9-2-2v-16c0-1.1,0.9-2,2-2h16c1.1,0,2,0.9,2,2v16C251.7,227.1,250.8,228,249.7,228z"
	/>
<path class="st1" d="M217.3,228h-16c-1.1,0-2-0.9-2-2v-16c0-1.1,0.9-2,2-2h16c1.1,0,2,0.9,2,2v16C219.3,227.1,218.4,228,217.3,228z"
	/>
<path class="st1" d="M185,258h-16c-1.1,0-2-0.9-2-2v-16c0-1.1,0.9-2,2-2h16c1.1,0,2,0.9,2,2v16C187,257.1,186.1,258,185,258z"/>
<path class="st1" d="M282,258h-16c-1.1,0-2-0.9-2-2v-16c0-1.1,0.9-2,2-2h16c1.1,0,2,0.9,2,2v16C284,257.1,283.1,258,282,258z"/>
<path class="st1" d="M249.7,258h-16c-1.1,0-2-0.9-2-2v-16c0-1.1,0.9-2,2-2h16c1.1,0,2,0.9,2,2v16C251.7,257.1,250.8,258,249.7,258z"
	/>
<path class="st1" d="M217.3,258h-16c-1.1,0-2-0.9-2-2v-16c0-1.1,0.9-2,2-2h16c1.1,0,2,0.9,2,2v16C219.3,257.1,218.4,258,217.3,258z"
	/>
<path class="st1" d="M185,288h-16c-1.1,0-2-0.9-2-2v-16c0-1.1,0.9-2,2-2h16c1.1,0,2,0.9,2,2v16C187,287.1,186.1,288,185,288z"/>
<path class="st1" d="M282,288h-16c-1.1,0-2-0.9-2-2v-16c0-1.1,0.9-2,2-2h16c1.1,0,2,0.9,2,2v16C284,287.1,283.1,288,282,288z"/>
</svg>
