<?xml version="1.0" encoding="utf-8"?>
<!-- Generator: Adobe Illustrator 21.0.0, SVG Export Plug-In . SVG Version: 6.00 Build 0)  -->
<svg version="1.1" xmlns="http://www.w3.org/2000/svg" xmlns:xlink="http://www.w3.org/1999/xlink" x="0px" y="0px"
	 viewBox="0 0 1920 1080" style="enable-background:new 0 0 1920 1080;" xml:space="preserve">
<style type="text/css">
	.st0{fill:url(#SVGID_1_);}
	.st1{fill:#267CC6;}
</style>
<g id="Слой_1">
	<g>
		<linearGradient id="SVGID_1_" gradientUnits="userSpaceOnUse" x1="960" y1="1080" x2="960" y2="-9.094947e-13">
			<stop  offset="0" style="stop-color:#004987"/>
			<stop  offset="0.7203" style="stop-color:#005CAD"/>
			<stop  offset="1" style="stop-color:#0064BC"/>
		</linearGradient>
		<rect class="st0" width="1920" height="1080"/>
	</g>
</g>
<g id="Слой_2">
	<g>
		<path class="st1" d="M71.5,232.3c0,58.8,47.7,106.5,106.5,106.5s106.5-47.7,106.5-106.5c0-58.8-106.5-213-106.5-213
			S71.5,173.4,71.5,232.3z"/>
		<path class="st1" d="M71.5,592.3c0,58.8,47.7,106.5,106.5,106.5s106.5-47.7,106.5-106.5c0-58.8-106.5-213-106.5-213
			S71.5,533.4,71.5,592.3z"/>
		<path class="st1" d="M71.5,952.3c0,58.8,47.7,106.5,106.5,106.5s106.5-47.7,106.5-106.5c0-58.8-106.5-213-106.5-213
			S71.5,893.4,71.5,952.3z"/>
		<path class="st1" d="M384.5,234.3c0,58.8,47.7,106.5,106.5,106.5s106.5-47.7,106.5-106.5c0-58.8-106.5-213-106.5-213
			S384.5,175.4,384.5,234.3z"/>
		<path class="st1" d="M384.5,594.3c0,58.8,47.7,106.5,106.5,106.5s106.5-47.7,106.5-106.5c0-58.8-106.5-213-106.5-213
			S384.5,535.4,384.5,594.3z"/>
		<path class="st1" d="M384.5,954.3c0,58.8,47.7,106.5,106.5,106.5s106.5-47.7,106.5-106.5c0-58.8-106.5-213-106.5-213
			S384.5,895.4,384.5,954.3z"/>
		<path class="st1" d="M697.5,232.3c0,58.8,47.7,106.5,106.5,106.5s106.5-47.7,106.5-106.5c0-58.8-106.5-213-106.5-213
			S697.5,173.4,697.5,232.3z"/>
		<path class="st1" d="M697.5,592.3c0,58.8,47.7,106.5,106.5,106.5s106.5-47.7,106.5-106.5c0-58.8-106.5-213-106.5-213
			S697.5,533.4,697.5,592.3z"/>
		<path class="st1" d="M697.5,952.3c0,58.8,47.7,106.5,106.5,106.5s106.5-47.7,106.5-106.5c0-58.8-106.5-213-106.5-213
			S697.5,893.4,697.5,952.3z"/>
		<path class="st1" d="M1010.5,232.3c0,58.8,47.7,106.5,106.5,106.5s106.5-47.7,106.5-106.5c0-58.8-106.5-213-106.5-213
			S1010.5,173.4,1010.5,232.3z"/>
		<path class="st1" d="M1010.5,592.3c0,58.8,47.7,106.5,106.5,106.5s106.5-47.7,106.5-106.5c0-58.8-106.5-213-106.5-213
			S1010.5,533.4,1010.5,592.3z"/>
		<path class="st1" d="M1010.5,952.3c0,58.8,47.7,106.5,106.5,106.5s106.5-47.7,106.5-106.5c0-58.8-106.5-213-106.5-213
			S1010.5,893.4,1010.5,952.3z"/>
		<path class="st1" d="M1323.5,232.3c0,58.8,47.7,106.5,106.5,106.5s106.5-47.7,106.5-106.5c0-58.8-106.5-213-106.5-213
			S1323.5,173.4,1323.5,232.3z"/>
		<path class="st1" d="M1323.5,592.3c0,58.8,47.7,106.5,106.5,106.5s106.5-47.7,106.5-106.5c0-58.8-106.5-213-106.5-213
			S1323.5,533.4,1323.5,592.3z"/>
		<path class="st1" d="M1323.5,952.3c0,58.8,47.7,106.5,106.5,106.5s106.5-47.7,106.5-106.5c0-58.8-106.5-213-106.5-213
			S1323.5,893.4,1323.5,952.3z"/>
		<path class="st1" d="M1743,340.8c58.8,0,106.5-47.7,106.5-106.5c0-58.8-106.5-213-106.5-213s-106.5,154.2-106.5,213
			C1636.5,293.1,1684.2,340.8,1743,340.8z"/>
		<path class="st1" d="M1636.5,594.3c0,58.8,47.7,106.5,106.5,106.5s106.5-47.7,106.5-106.5c0-58.8-106.5-213-106.5-213
			S1636.5,535.4,1636.5,594.3z"/>
		<path class="st1" d="M1636.5,954.3c0,58.8,47.7,106.5,106.5,106.5s106.5-47.7,106.5-106.5c0-58.8-106.5-213-106.5-213
			S1636.5,895.4,1636.5,954.3z"/>
	</g>
</g>
</svg>
