<?xml version="1.0" encoding="utf-8"?>
<!-- Generator: Adobe Illustrator 21.0.0, SVG Export Plug-In . SVG Version: 6.00 Build 0)  -->
<svg version="1.0" id="Слой_2" xmlns="http://www.w3.org/2000/svg" xmlns:xlink="http://www.w3.org/1999/xlink" x="0px" y="0px"
	 viewBox="0 0 450 450" enable-background="new 0 0 450 450" xml:space="preserve">
<path fill="#DB3328" d="M299.4,76C273,75.7,249,85.6,231,102.1c-18.5-17.3-43.6-27.5-71.1-26.5c-52.5,1.9-96.4,45.1-95.4,97.5
	C65,200,72,225,118.5,281.5C140,307,185,344,230.5,364.4C276,342,323,304,343,282c48-61,54-77,54-108.4
	C397,120.2,352.7,76.7,299.4,76z"/>
<path fill="#FFFFFF" d="M290.5,211.5H267l-3.7,16.8l-4.2-61.3l-8.2,44.5h-18.4l-2.3,4.2l-4.3-23.9l-7.6,19.7h-31.8
	c-1.4,0-71.5,1.1-71.5,2.5c0,1.4,70.1,2.5,71.5,2.5h35.2l2.4-6.3l3.7,20.1l7.7-13.8h19.6l1.8-9.5l3.8,56.7l10.3-47.2h19.5
	c1.4,0,56.5-1.1,56.5-2.5C347,212.6,291.9,211.5,290.5,211.5z"/>
</svg>
