<?xml version="1.0" encoding="utf-8"?>
<!-- Generator: Adobe Illustrator 21.0.0, SVG Export Plug-In . SVG Version: 6.00 Build 0)  -->
<svg version="1.1" id="Слой_1" xmlns="http://www.w3.org/2000/svg" xmlns:xlink="http://www.w3.org/1999/xlink" x="0px" y="0px"
	 viewBox="0 0 100 100" style="enable-background:new 0 0 100 100;" xml:space="preserve">
<style type="text/css">
	.st0{fill:#454647;}
</style>
<path class="st0" d="M67.6,59.2l-6.5,6.4L40,40.5l7.4-5.3c1.1-0.9,1.1-2.7,0-3.9L35.1,12.9c-1.1-1.3-2.8-1.5-3.9-0.6L21,19.6
	c-1.1,0.9-1.1,2.7,0,3.9l0,0.1C19.5,32.2,26.4,48,39,62.9c12.6,14.9,27,24.3,35.8,24.2l0,0c1.1,1.3,2.8,1.5,3.9,0.6l8.9-8.9
	c1.1-0.9,1.1-2.7,0-3.9L71.5,59.8C70.4,58.6,68.7,58.3,67.6,59.2z"/>
</svg>
