<?xml version="1.0" encoding="utf-8"?>
<!-- Generator: Adobe Illustrator 21.0.0, SVG Export Plug-In . SVG Version: 6.00 Build 0)  -->
<svg version="1.1" id="Слой_1" xmlns="http://www.w3.org/2000/svg" xmlns:xlink="http://www.w3.org/1999/xlink" x="0px" y="0px"
	 viewBox="0 0 450 450" style="enable-background:new 0 0 450 450;" xml:space="preserve">
<style type="text/css">
	.st0{fill:#DB3328;}
	.st1{fill:#FFFFFF;}
</style>
<g>
	<circle class="st0" cx="225" cy="225" r="225"/>
</g>
<path class="st1" d="M180.1,271.6L180.1,271.6c-6.9-6.9-6.9-18.2,0-25.1l92.3-92.3c6.9-6.9,18.2-6.9,25.1,0l0,0
	c6.9,6.9,6.9,18.2,0,25.1l-92.3,92.3C198.3,278.5,187,278.5,180.1,271.6z"/>
<path class="st1" d="M212.9,217l-55-30c-1.9-1.9-1.9-4.9,0-6.8l17.4-17.4c1.9-1.9,4.2-1.4,6.8,0l69.5,15.5c1.9,1.9,1.9,4.9,0,6.8
	L219.7,217C217.8,218.9,214.8,218.9,212.9,217z"/>
<path class="st1" d="M236.4,237l30,55c1.9,1.9,4.9,1.9,6.8,0l17.4-17.4c1.9-1.9,1.4-4.2,0-6.8l-15.5-69.5c-1.9-1.9-4.9-1.9-6.8,0
	l-31.9,31.9C234.5,232.1,234.5,235.1,236.4,237z"/>
<path class="st1" d="M167.1,281.7l-36.2-19.7c-1.2-1.2-1.2-3.2,0-4.4l11.4-11.4c1.2-1.2,2.7-0.9,4.4,0l45.7,10.2
	c1.2,1.2,1.2,3.2,0,4.4l-21,21C170.3,282.9,168.3,282.9,167.1,281.7z"/>
<path class="st1" d="M169.1,283.4l19.7,36.2c1.2,1.2,3.2,1.2,4.4,0l11.4-11.4c1.2-1.2,0.9-2.7,0-4.4L194.5,258
	c-1.2-1.2-3.2-1.2-4.4,0l-21,21C167.8,280.2,167.8,282.2,169.1,283.4z"/>
</svg>
