<?xml version="1.0" encoding="utf-8"?>
<!-- Generator: Adobe Illustrator 21.0.0, SVG Export Plug-In . SVG Version: 6.00 Build 0)  -->
<svg version="1.1" xmlns="http://www.w3.org/2000/svg" xmlns:xlink="http://www.w3.org/1999/xlink" x="0px" y="0px"
	 viewBox="0 0 450 450" style="enable-background:new 0 0 450 450;" xml:space="preserve">
<style type="text/css">
	.st0{fill:#FFFFFF;}
</style>
<g id="Слой_1">
	<g id="Слой_2">
		<image style="overflow:visible;" width="329" height="291" xlink:href="F499B9CE.png"  transform="matrix(1 0 0 1 60 85)">
		</image>
	</g>
</g>
<g id="Слой_2_1_">
	<g>
		<path class="st0" d="M260.8,221l-4,17.3l-3.7-62.4l-8.4,45.1h-18.5l-2.3,4.6l-4.2-24.4L212,221h-15.8c-1.4,0-87.5,1.1-87.5,2.5
			l0,0c0,1.4,86.1,2.5,87.5,2.5h19.2l2.4-6.2l3.8,21.6l7.7-15.4h19.5l1.6-8.9l3.3,55.9l10.9-47h11.5c1.4,0,64.5-1.1,64.5-2.5l0,0
			c0-1.4-63.1-2.5-64.5-2.5H260.8z"/>
	</g>
</g>
</svg>
