<?xml version="1.0" encoding="utf-8"?>
<!-- Generator: Adobe Illustrator 21.0.0, SVG Export Plug-In . SVG Version: 6.00 Build 0)  -->
<svg version="1.1" id="Слой_1" xmlns="http://www.w3.org/2000/svg" xmlns:xlink="http://www.w3.org/1999/xlink" x="0px" y="0px"
	 viewBox="0 0 450 450" style="enable-background:new 0 0 450 450;" xml:space="preserve">
<style type="text/css">
	.st0{fill:#DB3328;}
	.st1{fill:#FFFFFF;}
</style>
<g>
	<circle class="st0" cx="225" cy="225" r="225"/>
</g>
<path class="st1" d="M258,158.4c-13.4,0-25.3,6.3-33,16c-7.7-9.8-19.6-16-33-16c-23.2,0-42,18.8-42,42s9.1,31.8,30,50.4
	c10.8,9.6,45.6,40.8,45.6,40.8s33.6-28.8,44.4-39.6c18.2-18.2,30-28.4,30-51.6S281.2,158.4,258,158.4z M262.3,246.4
	c-9.5,9.5-36.7,33.7-36.7,33.7s-28.3-26.3-37.8-34.8c-18.4-16.4-28.7-24-28.7-44.4s15.3-33.4,35.8-33.4c11.8,0,23.5,9,30.2,17.6
	c6.8-8.6,18.5-17.6,30.2-17.6c20.4,0,35.8,12.9,35.8,33.4S278.2,230.4,262.3,246.4z"/>
<path class="st1" d="M161.9,286.6L161.9,286.6c-1.4-1.4-1.4-3.6,0-4.9l26.2-26.2c1.4-1.4,3.6-1.4,4.9,0l0,0c1.4,1.4,1.4,3.6,0,4.9
	l-26.2,26.2C165.5,287.9,163.3,287.9,161.9,286.6z"/>
<path class="st1" d="M162.8,287.8L162.8,287.8c-1.9-0.3-3.2-2.2-2.8-4.1l2.3-12.8c0.3-1.9,2.2-3.2,4.1-2.8l0,0
	c1.9,0.3,3.2,2.2,2.8,4.1l-2.3,12.8C166.5,286.9,164.7,288.2,162.8,287.8z"/>
<path class="st1" d="M161.2,285.2L161.2,285.2c-0.3-1.9,0.9-3.7,2.8-4.1l12.8-2.3c1.9-0.3,3.7,0.9,4.1,2.8l0,0
	c0.3,1.9-0.9,3.7-2.8,4.1l-12.8,2.3C163.3,288.4,161.5,287.1,161.2,285.2z"/>
<path class="st1" d="M273.9,184.6L273.9,184.6c-1.4-1.4-1.4-3.6,0-4.9l26.2-26.2c1.4-1.4,3.6-1.4,4.9,0h0c1.4,1.4,1.4,3.6,0,4.9
	l-26.2,26.2C277.5,185.9,275.3,185.9,273.9,184.6z"/>
<path class="st1" d="M290.8,169.8L290.8,169.8c-1.9-0.3-3.2-2.2-2.8-4.1l2.3-12.8c0.3-1.9,2.2-3.2,4.1-2.8l0,0
	c1.9,0.3,3.2,2.2,2.8,4.1l-2.3,12.8C294.5,168.9,292.7,170.2,290.8,169.8z"/>
<path class="st1" d="M289.2,167.2L289.2,167.2c-0.3-1.9,0.9-3.7,2.8-4.1l12.8-2.3c1.9-0.3,3.7,0.9,4.1,2.8l0,0
	c0.3,1.9-0.9,3.7-2.8,4.1l-12.8,2.3C291.3,170.4,289.5,169.1,289.2,167.2z"/>
</svg>
