<?xml version="1.0" encoding="utf-8"?>
<!-- Generator: Adobe Illustrator 21.0.0, SVG Export Plug-In . SVG Version: 6.00 Build 0)  -->
<svg version="1.1" id="Слой_1" xmlns="http://www.w3.org/2000/svg" xmlns:xlink="http://www.w3.org/1999/xlink" x="0px" y="0px"
	 viewBox="0 0 450 450" style="enable-background:new 0 0 450 450;" xml:space="preserve">
<style type="text/css">
	.st0{fill:#DB3328;}
	.st1{fill:#FFFFFF;}
</style>
<g>
	<circle class="st0" cx="225" cy="225" r="225"/>
</g>
<ellipse class="st0" cx="225.5" cy="155" rx="12.5" ry="10"/>
<path class="st1" d="M205.7,292.8c0-15.1,27.3-63.4,27.3-63.4s27.3,48.3,27.3,63.4s-12.2,27.3-27.3,27.3S205.7,307.9,205.7,292.8z"
	/>
<path class="st1" d="M256.9,169.3c0-15.1,27.3-63.4,27.3-63.4s27.3,48.3,27.3,63.4c0,15.1-12.2,27.3-27.3,27.3
	C269.1,196.6,256.9,184.4,256.9,169.3z"/>
<path class="st1" d="M140.5,197.3c0-15.1,27.3-63.4,27.3-63.4s27.3,48.3,27.3,63.4c0,15.1-12.2,27.3-27.3,27.3
	S140.5,212.4,140.5,197.3z"/>
</svg>
